<svg width="129" height="60" viewBox="0 0 129 60" fill="none" xmlns="http://www.w3.org/2000/svg">
<g clip-path="url(#clip0_16267_14456)">
<path d="M90.2937 41.5354C93.2187 49.0064 100.03 54.9536 109.02 54.9536C119.712 54.9536 128.375 46.8945 128.375 36.9587C128.375 31.6047 125.859 26.7979 121.87 23.5047C121.87 23.5047 117.268 19.7616 113.392 20.5082C111.52 20.8661 104.044 28.9405 104.044 28.9405C110.692 24.0979 116.89 27.1661 116.89 27.1661C120.653 29.4008 123.133 33.236 123.133 37.5928C123.133 44.4911 116.92 50.0803 109.255 50.0803C103.466 50.0803 98.5011 46.8894 96.4198 42.3587C96.4198 42.3587 90.1965 32.2133 97.5193 13.4462C97.5193 13.4462 99.0176 9.25304 96.0056 9.04849C92.9886 8.84395 92.4721 11.7229 92.4721 11.7229C92.4721 11.7229 85.5789 29.4928 90.2937 41.5354Z" fill="#00749B"/>
<path d="M101.165 28.9303C100.122 27.8872 100.122 26.1792 101.165 25.136L124.555 1.74625C125.598 0.703072 127.306 0.703072 128.349 1.74625C129.392 2.78944 129.392 4.49739 128.349 5.54057L104.96 28.9303C103.916 29.9735 102.213 29.9735 101.165 28.9303Z" fill="#00749B"/>
<path d="M101.722 34.8519C102.407 34.857 103.148 35.1792 103.517 35.7826C103.89 36.4013 103.808 37.1633 103.956 37.8434C104.1 38.5235 104.396 39.1678 104.805 39.7252C105.715 40.9627 107.158 41.74 108.676 41.8934C108.871 41.9138 109.065 41.9241 109.264 41.9241C110.829 41.9241 112.368 41.2746 113.417 40.1036C114.439 38.9581 114.475 37.153 115.8 36.2735C116.618 35.7314 117.743 35.6803 118.469 36.4064C119.619 37.5621 118.694 39.6741 118.075 40.886C117.385 42.2462 116.372 43.4377 115.145 44.3428C113.447 45.5905 111.371 46.24 109.269 46.24C106.201 46.24 103.179 44.8542 101.302 42.3996C100.326 41.1212 99.6967 39.5718 99.5127 37.9661C99.4155 37.107 99.482 36.1303 100.121 35.486C100.535 35.0616 101.129 34.8468 101.722 34.8519Z" fill="#EA8938"/>
<path d="M17.2195 33.2739C17.7206 33.2739 18.0428 33.1869 18.2013 33.0182C18.3547 32.8443 18.4314 32.4915 18.4314 31.9597V18.5722C18.4314 18.3472 18.4723 18.1989 18.549 18.1222C18.6257 18.0455 18.7536 17.9892 18.9223 17.9534L20.7786 17.6977C21.1365 17.6466 21.3206 17.8256 21.3206 18.2398V32.8903C21.3206 33.954 21.0189 34.7619 20.4206 35.304C19.8172 35.846 18.8559 36.117 17.5314 36.117H7.13029C5.08484 36.117 3.53541 35.6364 2.48711 34.6699C1.43881 33.7085 0.912109 32.3739 0.912109 30.671V27.654C0.912109 27.2602 1.12688 27.0608 1.55643 27.0608H3.18256C3.38711 27.0608 3.54563 27.1017 3.65813 27.1784C3.77063 27.2551 3.82688 27.4136 3.82688 27.654V29.408C3.82688 30.1136 3.89336 30.7119 4.0212 31.2028C4.14904 31.6937 4.36381 32.0926 4.66552 32.4045C4.96722 32.7114 5.36609 32.9364 5.86722 33.0744C6.36836 33.2125 6.99222 33.279 7.74904 33.279L17.2195 33.2739ZM9.37518 26.1812C9.06836 25.7312 8.90984 25.2352 8.90984 24.683C8.90984 23.9619 9.16552 23.3841 9.67177 22.9545C10.178 22.525 10.7968 22.3102 11.5178 22.3102C12.2388 22.3102 12.9138 22.5097 13.5326 22.9034C13.6195 22.9699 13.686 23.0568 13.7371 23.1489C13.7882 23.2409 13.778 23.3432 13.7115 23.4455L13.4559 24.0898C13.4047 24.2074 13.3536 24.2943 13.3024 24.3352C13.2513 24.3761 13.1593 24.3557 13.0212 24.2687C12.5405 24.0284 12.1007 23.9108 11.707 23.9108C11.3797 23.9108 11.1138 24.0131 10.9093 24.2176C10.7047 24.4222 10.6025 24.6983 10.6025 25.0409C10.6025 25.4193 10.7405 25.7977 11.0167 26.1761H13.6451C13.8854 26.1761 14.003 26.2937 14.003 26.5341V27.4085C14.003 27.6489 13.8854 27.7665 13.6451 27.7665H8.63881C8.39847 27.7665 8.28086 27.6386 8.28086 27.3778V26.529C8.28086 26.2886 8.39847 26.171 8.63881 26.171L9.37518 26.1812Z" fill="#EA8938"/>
<path d="M28.6228 33.2737H31.0466V36.1117H28.3671C28.2495 36.7151 28.0602 37.2623 27.8148 37.7634C27.5693 38.2646 27.237 38.7299 26.833 39.1697C26.429 39.6095 25.933 40.0288 25.35 40.4328C24.762 40.8367 24.0767 41.2561 23.2841 41.6856C22.9262 41.8901 22.6398 41.7981 22.4352 41.4043L21.7142 40.0901C21.612 39.9009 21.5966 39.7424 21.6733 39.6146C21.75 39.4867 21.9085 39.3538 22.1489 39.2157C22.8392 38.8168 23.412 38.4384 23.8773 38.0651C24.3375 37.6918 24.7108 37.2725 24.987 36.8021C25.2631 36.3265 25.4574 35.7793 25.5648 35.1504C25.6773 34.5214 25.7335 33.7646 25.7335 32.8697V26.1299C25.7335 25.7004 25.9585 25.4856 26.4034 25.4856H27.9529C28.3977 25.4856 28.6228 25.7004 28.6228 26.1299V33.2737Z" fill="#EA8938"/>
<path d="M31.4053 42.017C30.9757 42.017 30.6178 41.8891 30.3365 41.6437C30.0553 41.3931 29.9121 41.0556 29.9121 40.6261C29.9121 40.1965 30.0553 39.8539 30.3365 39.5931C30.6178 39.3374 30.9757 39.2045 31.4053 39.2045C31.8195 39.2045 32.1672 39.3323 32.4485 39.5931C32.7348 39.8539 32.8729 40.1965 32.8729 40.6261C32.8729 41.0556 32.7297 41.3931 32.4485 41.6437C32.1672 41.8943 31.8195 42.017 31.4053 42.017ZM30.7917 36.1107C30.6178 36.1107 30.4388 36.0289 30.2496 35.8653C30.0604 35.7016 29.9684 35.313 29.9684 34.6891C29.9684 34.0704 30.0604 33.6767 30.2496 33.513C30.4388 33.3494 30.6229 33.2676 30.7917 33.2676H33.3178C33.8189 33.2676 34.1462 33.1806 34.3098 33.0119C34.4735 32.838 34.5553 32.4852 34.5553 31.9534V26.1238C34.5553 25.6943 34.7803 25.4795 35.2252 25.4795H36.7746C37.2246 25.4795 37.4445 25.6943 37.4445 26.1238V32.521C37.736 32.7766 38.0888 32.971 38.503 33.0886C38.9172 33.2062 39.4593 33.2676 40.1292 33.2676H40.2826V36.1056H40.1292C39.3723 36.1056 38.7331 35.9931 38.2218 35.7732C37.7053 35.5482 37.286 35.2312 36.9587 34.817C36.3911 35.6761 35.2712 36.1056 33.6042 36.1056H30.7917V36.1107ZM35.1996 42.017C34.7701 42.017 34.4121 41.8891 34.1309 41.6437C33.8496 41.3931 33.7064 41.0556 33.7064 40.6261C33.7064 40.1965 33.8496 39.8539 34.1309 39.5931C34.4121 39.3374 34.7701 39.2045 35.1996 39.2045C35.6138 39.2045 35.9615 39.3323 36.2428 39.5931C36.5292 39.8539 36.6672 40.1965 36.6672 40.6261C36.6672 41.0556 36.524 41.3931 36.2428 41.6437C35.9615 41.8943 35.6138 42.017 35.1996 42.017Z" fill="#EA8938"/>
<path d="M42.6027 33.2737C43.1703 33.2737 43.5589 33.1357 43.7635 32.8595C43.968 32.5834 44.0703 32.1027 44.0703 31.4124V28.4209C44.0703 28.1806 44.1265 28.0169 44.239 27.93C44.3515 27.8431 44.4998 27.8021 44.689 27.8021H46.3663C46.5555 27.8021 46.7038 27.8431 46.8163 27.93C46.9288 28.0169 46.9851 28.1806 46.9851 28.4209V32.5476C47.6396 33.0794 48.3197 33.3453 49.0254 33.3453C49.6288 33.3453 50.0379 33.1766 50.2629 32.8442C50.4879 32.5118 50.5953 32.0925 50.5953 31.5914V28.4158C50.5953 28.1754 50.6566 28.0118 50.7743 27.9249C50.8919 27.8379 51.0504 27.797 51.2396 27.797H52.8913C53.0958 27.797 53.2493 27.8379 53.3566 27.9249C53.4589 28.0118 53.5101 28.1754 53.5101 28.4158V32.5169C53.8169 32.8135 54.139 33.0181 54.4765 33.1459C54.8089 33.2737 55.1515 33.3402 55.4941 33.3402C56.0618 33.3402 56.4606 33.1817 56.6958 32.8646C56.926 32.5476 57.0436 32.1232 57.0436 31.5862V26.0993C57.0436 25.859 57.0998 25.6953 57.2123 25.6084C57.3248 25.5215 57.4731 25.4806 57.6623 25.4806H59.3396C59.5441 25.4806 59.6976 25.5215 59.8049 25.6084C59.9072 25.6953 59.9583 25.859 59.9583 26.0993V32.2919C59.9583 32.8084 59.8765 33.2993 59.7129 33.7646C59.5493 34.23 59.3038 34.6391 58.9765 34.9919C58.6493 35.3448 58.2504 35.6209 57.7748 35.8152C57.2993 36.0095 56.7572 36.1118 56.1333 36.1118C54.7578 36.1118 53.6481 35.6056 52.8044 34.5879C52.4975 35.0533 52.068 35.4215 51.526 35.6976C50.9839 35.9737 50.3498 36.1118 49.6288 36.1118C49.0612 36.1118 48.4731 35.9942 47.8748 35.7641C47.2714 35.534 46.7754 35.176 46.3765 34.6953C46.0851 35.1453 45.6555 35.4931 45.0879 35.7385C44.5203 35.9891 43.7993 36.1118 42.9197 36.1118H40.0049C39.8311 36.1118 39.6521 36.03 39.4629 35.8664C39.2737 35.7027 39.1816 35.3141 39.1816 34.6902C39.1816 34.0664 39.2737 33.6777 39.4629 33.5141C39.6521 33.3504 39.8362 33.2686 40.0049 33.2686L42.6027 33.2737ZM50.1862 22.3919C49.7566 22.3919 49.3987 22.2641 49.1174 22.0186C48.8362 21.7681 48.693 21.4306 48.693 21.001C48.693 20.5715 48.8362 20.2289 49.1174 19.9681C49.3987 19.7073 49.7566 19.5845 50.1862 19.5845C50.6004 19.5845 50.9481 19.7124 51.2294 19.9681C51.5106 20.2237 51.6538 20.5715 51.6538 21.001C51.6538 21.4306 51.5106 21.7732 51.2294 22.0186C50.9481 22.2641 50.6004 22.3919 50.1862 22.3919ZM52.068 19.109C51.6538 19.109 51.3061 18.9914 51.0248 18.751C50.7436 18.5107 50.6004 18.1629 50.6004 17.7181C50.6004 17.2885 50.7436 16.951 51.0248 16.7004C51.3061 16.4499 51.6538 16.3271 52.068 16.3271C52.4975 16.3271 52.8555 16.455 53.1368 16.7004C53.418 16.951 53.5612 17.2885 53.5612 17.7181C53.5612 18.1681 53.418 18.5107 53.1368 18.751C52.8606 18.9914 52.5027 19.109 52.068 19.109ZM53.9805 22.3919C53.551 22.3919 53.193 22.2641 52.9118 22.0186C52.6305 21.7681 52.4873 21.4306 52.4873 21.001C52.4873 20.5715 52.6305 20.2289 52.9118 19.9681C53.193 19.7124 53.551 19.5845 53.9805 19.5845C54.3947 19.5845 54.7424 19.7124 55.0237 19.9681C55.3101 20.2237 55.4481 20.5715 55.4481 21.001C55.4481 21.4306 55.3049 21.7732 55.0237 22.0186C54.7424 22.2641 54.3896 22.3919 53.9805 22.3919Z" fill="#EA8938"/>
<path d="M63.2676 18.5722C63.2676 18.3472 63.3085 18.1989 63.3852 18.1222C63.4619 18.0455 63.5897 17.9892 63.7585 17.9534L65.6147 17.6977C65.9727 17.6466 66.1568 17.8256 66.1568 18.2398V31.9648C66.1568 32.4966 66.2386 32.8494 66.4022 33.0233C66.5659 33.1972 66.8983 33.279 67.3943 33.279H68.7085V36.117H67.1079C65.763 36.117 64.7863 35.846 64.1829 35.304C63.5693 34.7619 63.2676 33.9591 63.2676 32.8903V18.5722Z" fill="#EA8938"/>
<path d="M68.4522 36.1132C68.2783 36.1132 68.0994 36.0314 67.9102 35.8678C67.721 35.7041 67.6289 35.3206 67.6289 34.7172C67.6289 34.4104 67.6545 34.1598 67.7056 33.9706C67.7567 33.7814 67.8232 33.6382 67.9102 33.5308C67.9971 33.4286 68.0891 33.357 68.1812 33.3263C68.2732 33.2905 68.3653 33.2752 68.4522 33.2752H74.0772C74.7675 33.2752 75.3096 33.1729 75.7187 32.9786C76.1227 32.7791 76.3221 32.4263 76.3221 31.9098C76.3221 31.5519 76.1789 31.1581 75.8823 30.7337C75.5908 30.3144 75.1306 29.8848 74.5016 29.445C73.8727 29.0053 73.0749 28.5757 72.1033 28.1411C71.1317 27.7115 69.9761 27.3075 68.6312 26.9291C68.442 26.8626 68.2988 26.7859 68.2067 26.7092C68.1147 26.6325 68.0636 26.4996 68.0636 26.3104V25.0933C68.0636 24.9553 68.0891 24.8376 68.1403 24.7354C68.1914 24.6331 68.2835 24.5308 68.4215 24.4286L75.9795 17.8524C76.3374 17.5456 76.6442 17.5251 76.8795 17.8013L77.8357 18.8854C77.9738 19.0592 78.0454 19.2126 78.0556 19.3507C78.0658 19.4888 77.9789 19.632 77.8102 19.7905L71.6431 25.1547C74.205 26.1365 76.1175 27.195 77.3857 28.3303C78.6488 29.4655 79.2829 30.7644 79.2829 32.2269C79.2829 33.0348 79.1141 33.6945 78.7817 34.2007C78.4494 34.707 78.0198 35.1007 77.5033 35.3871C76.9869 35.6734 76.409 35.8627 75.7749 35.9649C75.1357 36.0672 74.5119 36.1183 73.8931 36.1183L68.4522 36.1132Z" fill="#EA8938"/>
<path d="M0.298828 49.2236C0.298828 48.073 0.528943 47.0708 0.98917 46.2117C1.44428 45.3526 2.11928 44.6878 3.00394 44.2071C3.8886 43.7316 4.96758 43.4912 6.24599 43.4912C6.78803 43.4912 7.27383 43.5321 7.69826 43.6242C8.12269 43.7162 8.48576 43.8287 8.78235 43.9719V45.6031H8.63917C8.34258 45.4293 7.98974 45.2963 7.58576 45.2094C7.18178 45.1225 6.74201 45.0764 6.27667 45.0764C5.43292 45.0764 4.70678 45.2298 4.09826 45.5367C3.48974 45.8435 3.01417 46.3088 2.69201 46.9225C2.36474 47.5412 2.2011 48.3031 2.2011 49.2185C2.2011 50.1338 2.36474 50.8958 2.69201 51.5145C3.01928 52.1333 3.48462 52.5935 4.09826 52.9003C4.7119 53.2071 5.43803 53.3605 6.27667 53.3605C6.74712 53.3605 7.18178 53.3196 7.58576 53.2276C7.98974 53.1406 8.34258 53.0128 8.63917 52.8338H8.78235V54.4651C8.48576 54.6083 8.12269 54.7259 7.69826 54.8128C7.27383 54.8997 6.78803 54.9458 6.24599 54.9458C4.96758 54.9458 3.8886 54.7156 3.00394 54.2605C2.11928 53.8054 1.4494 53.1458 0.98917 52.2918C0.534057 51.4378 0.298828 50.4151 0.298828 49.2236Z" fill="#EA8938"/>
<path d="M10.6074 54.7718L11.8858 47.4082C11.9932 46.7536 12.162 46.1809 12.3972 45.6951C12.6324 45.2093 12.9392 44.8104 13.3176 44.4934C13.6961 44.1764 14.1665 43.9411 14.7392 43.7826C15.3069 43.6292 15.9921 43.5525 16.7949 43.5525C17.1887 43.5525 17.5978 43.5729 18.0171 43.6139C18.4364 43.6548 18.8557 43.7212 19.2699 43.8133L19.3006 43.9974C19.2699 44.1917 19.2444 44.4423 19.229 44.7491C19.2137 45.0559 19.2086 45.3678 19.2086 45.6798C19.2086 45.9917 19.2086 46.2525 19.2086 46.457V54.7616H17.3728V45.9099C17.3728 45.6849 17.3779 45.4752 17.383 45.2809C17.3881 45.0866 17.4137 44.9025 17.4546 44.7286L17.7409 45.2246C17.6029 45.1735 17.4341 45.1377 17.2398 45.1173C17.0455 45.0968 16.8307 45.0866 16.6108 45.0866C15.9614 45.0866 15.4449 45.1735 15.0614 45.3474C14.6779 45.5212 14.3864 45.7769 14.1921 46.1195C13.9927 46.457 13.8495 46.8917 13.7523 47.4286L12.4892 54.7769L10.6074 54.7718ZM12.3 51.5195V50.011H18.1654V51.5195H12.3Z" fill="#EA8938"/>
<path d="M21.6434 52.706H21.7865C22.0422 52.8389 22.3388 52.9566 22.6712 53.0588C23.0036 53.1611 23.3718 53.2429 23.7757 53.3043C24.1746 53.3656 24.599 53.3963 25.049 53.3963C25.5502 53.3963 25.99 53.3503 26.3735 53.2583C26.757 53.1662 27.0536 53.0179 27.2684 52.8134C27.4831 52.6088 27.5905 52.3173 27.5905 51.9492C27.5905 51.4992 27.4525 51.177 27.1763 50.9776C26.9002 50.7833 26.4809 50.635 25.9132 50.5327L24.5888 50.3026C23.9905 50.2105 23.4587 50.0367 22.9934 49.7861C22.5229 49.5355 22.1547 49.1929 21.8837 48.7531C21.6127 48.3134 21.4746 47.7713 21.4746 47.1117C21.4746 46.2986 21.674 45.6287 22.0729 45.0867C22.4718 44.5446 23.0394 44.1458 23.7757 43.885C24.5121 43.6242 25.3968 43.4912 26.4246 43.4912C26.8951 43.4912 27.3553 43.5321 27.8155 43.6139C28.2706 43.6958 28.6542 43.8031 28.9507 43.9361V45.5673H28.8229C28.5468 45.4344 28.199 45.3117 27.7848 45.2043C27.3706 45.0969 26.8848 45.0406 26.3326 45.0406C25.7445 45.0406 25.2229 45.1071 24.7678 45.2401C24.3127 45.373 23.9496 45.5878 23.6888 45.8793C23.428 46.1708 23.2951 46.5543 23.2951 47.0299C23.2951 47.6179 23.4638 48.027 23.7962 48.2673C24.1286 48.5077 24.6093 48.6816 25.228 48.7838L26.5371 49.0139C27.1047 49.106 27.6007 49.2645 28.0303 49.4895C28.4598 49.7145 28.7973 50.0213 29.0428 50.4151C29.2882 50.8088 29.411 51.2895 29.411 51.8776C29.411 52.3992 29.3036 52.8543 29.0888 53.2378C28.874 53.6213 28.5723 53.9384 28.1888 54.1941C27.8002 54.4446 27.3451 54.6338 26.8132 54.7566C26.2865 54.8793 25.6985 54.9406 25.049 54.9406C24.599 54.9406 24.1695 54.9151 23.7553 54.8639C23.3411 54.8128 22.9525 54.7463 22.5945 54.6543C22.2365 54.5674 21.9195 54.4702 21.6434 54.3679V52.706Z" fill="#EA8938"/>
<path d="M31.6152 54.7731V43.6816H33.4664V54.7731H31.6152ZM32.6686 49.8282V48.289H39.5363V49.8282H32.6686ZM38.7385 54.7731V43.6816H40.5897V54.7731H38.7385Z" fill="#EA8938"/>
<path d="M43.498 43.6816H45.3492V54.7731H43.498V43.6816Z" fill="#EA8938"/>
<path d="M48.2598 54.7731V43.6816H50.1109V54.7731H48.2598ZM49.3132 45.2362V43.6816H55.6387V45.2362H49.3132ZM49.3132 49.7669V48.2583H54.7592V49.7669H49.3132ZM49.3132 54.7731V53.2186H55.8126V54.7731H49.3132Z" fill="#EA8938"/>
<path d="M58.082 54.7724V43.6809H59.9332V54.7724H58.082ZM59.1354 51.6121V50.0423H61.8661C62.4542 50.0423 62.9349 49.9093 63.3184 49.6485C63.7019 49.3877 63.9883 49.0451 64.1724 48.6156C64.3565 48.1911 64.4536 47.7309 64.4536 47.2349C64.4536 46.5394 64.2542 46.0229 63.8604 45.6957C63.4667 45.3684 62.9502 45.1996 62.311 45.1996H59.1303V43.6758H62.357C63.2008 43.6758 63.9116 43.8138 64.5048 44.0951C65.0979 44.3712 65.5479 44.7752 65.8701 45.3019C66.1923 45.8286 66.3508 46.4678 66.3508 47.2195C66.3508 47.9201 66.2229 48.5389 65.9775 49.086C65.7269 49.6332 65.3894 50.0883 64.965 50.4667C64.5405 50.84 64.0548 51.1264 63.5178 51.3207C62.9809 51.515 62.4184 51.6121 61.8303 51.6121H59.1354ZM64.8525 54.7724L62.0246 51.1519L63.8758 50.9065L66.9593 54.6957V54.7724H64.8525Z" fill="#EA8938"/>
<path d="M68.8516 54.7731V43.6816H70.7027V54.7731H68.8516ZM71.8021 50.5799H69.8692V49.0407H71.705C72.247 49.0407 72.6612 48.9231 72.9425 48.6879C73.2237 48.4527 73.4436 48.1407 73.6072 47.7623L75.4942 43.6816H77.3811V43.8197L75.2896 48.2532C75.0851 48.6981 74.8345 49.0919 74.5226 49.4396C74.2158 49.7873 73.8374 50.0635 73.3874 50.2731C72.9374 50.4777 72.4107 50.5799 71.8021 50.5799ZM74.0419 49.4856L77.4425 54.6299V54.768H75.4124L72.5692 50.2885L74.0419 49.4856Z" fill="#EA8938"/>
</g>
<defs>
<clipPath id="clip0_16267_14456">
<rect width="129" height="60" fill="white"/>
</clipPath>
</defs>
</svg>
