<svg width="129" height="61" viewBox="0 0 129 61" fill="none" xmlns="http://www.w3.org/2000/svg">
<g clip-path="url(#clip0_16087_6875)">
<path d="M90.2937 42.0012C93.2187 49.4723 100.03 55.4194 109.02 55.4194C119.712 55.4194 128.375 47.3603 128.375 37.4245C128.375 32.0706 125.859 27.2637 121.87 23.9706C121.87 23.9706 117.268 20.2274 113.392 20.974C111.52 21.3319 104.044 29.4064 104.044 29.4064C110.692 24.5637 116.89 27.6319 116.89 27.6319C120.653 29.8666 123.133 33.7018 123.133 38.0586C123.133 44.9569 116.92 50.5461 109.255 50.5461C103.466 50.5461 98.5011 47.3552 96.4198 42.8245C96.4198 42.8245 90.1965 32.6791 97.5193 13.912C97.5193 13.912 99.0176 9.71886 96.0056 9.51431C92.9886 9.30977 92.4721 12.1887 92.4721 12.1887C92.4721 12.1887 85.5789 29.9586 90.2937 42.0012Z" fill="white"/>
<path d="M101.165 29.3962C100.122 28.353 100.122 26.645 101.165 25.6018L124.555 2.21207C125.598 1.16889 127.306 1.16889 128.349 2.21207C129.392 3.25526 129.392 4.96321 128.349 6.00639L104.96 29.3962C103.916 30.4393 102.213 30.4393 101.165 29.3962Z" fill="white"/>
<path d="M101.723 35.318C102.408 35.3231 103.149 35.6452 103.518 36.2486C103.891 36.8674 103.809 37.6293 103.957 38.3094C104.101 38.9896 104.397 39.6339 104.806 40.1913C105.716 41.4288 107.159 42.206 108.677 42.3594C108.872 42.3799 109.066 42.3901 109.265 42.3901C110.83 42.3901 112.369 41.7407 113.418 40.5697C114.44 39.4242 114.476 37.6191 115.801 36.7396C116.619 36.1975 117.744 36.1464 118.47 36.8725C119.62 38.0282 118.695 40.1401 118.076 41.3521C117.386 42.7123 116.373 43.9038 115.146 44.8089C113.448 46.0566 111.372 46.706 109.27 46.706C106.202 46.706 103.18 45.3202 101.303 42.8657C100.327 41.5873 99.6977 40.0378 99.5136 38.4322C99.4165 37.5731 99.4829 36.5964 100.122 35.9521C100.536 35.5276 101.13 35.3128 101.723 35.318Z" fill="white"/>
<path d="M17.2185 33.7394C17.7197 33.7394 18.0418 33.6525 18.2003 33.4838C18.3537 33.3099 18.4305 32.9571 18.4305 32.4252V19.0377C18.4305 18.8127 18.4714 18.6644 18.5481 18.5877C18.6248 18.511 18.7526 18.4548 18.9214 18.419L20.7776 18.1633C21.1356 18.1122 21.3197 18.2911 21.3197 18.7053V33.3559C21.3197 34.4196 21.018 35.2275 20.4197 35.7696C19.8162 36.3116 18.8549 36.5826 17.5305 36.5826H7.12931C5.08386 36.5826 3.53443 36.1019 2.48613 35.1355C1.43784 34.1741 0.911133 32.8394 0.911133 31.1366V28.1196C0.911133 27.7258 1.1259 27.5264 1.55545 27.5264H3.18159C3.38613 27.5264 3.54465 27.5673 3.65716 27.644C3.76965 27.7207 3.82591 27.8792 3.82591 28.1196V29.8735C3.82591 30.5792 3.89238 31.1775 4.02022 31.6684C4.14807 32.1593 4.36284 32.5582 4.66454 32.8701C4.96625 33.1769 5.36511 33.4019 5.86625 33.54C6.36738 33.6781 6.99125 33.7446 7.74806 33.7446L17.2185 33.7394ZM9.3742 26.6468C9.06738 26.1968 8.90886 25.7008 8.90886 25.1485C8.90886 24.4275 9.16454 23.8497 9.67079 23.4201C10.177 22.9906 10.7958 22.7758 11.5168 22.7758C12.2378 22.7758 12.9128 22.9752 13.5316 23.369C13.6185 23.4355 13.685 23.5224 13.7361 23.6144C13.7873 23.7065 13.777 23.8088 13.7106 23.911L13.4549 24.5553C13.4037 24.673 13.3526 24.7599 13.3015 24.8008C13.2503 24.8417 13.1583 24.8213 13.0202 24.7343C12.5395 24.494 12.0998 24.3764 11.706 24.3764C11.3787 24.3764 11.1128 24.4786 10.9083 24.6832C10.7037 24.8877 10.6015 25.1639 10.6015 25.5065C10.6015 25.8849 10.7395 26.2633 11.0157 26.6417H13.6441C13.8844 26.6417 14.002 26.7593 14.002 26.9997V27.8741C14.002 28.1144 13.8844 28.232 13.6441 28.232H8.63784C8.3975 28.232 8.27988 28.1042 8.27988 27.8434V26.9946C8.27988 26.7542 8.3975 26.6366 8.63784 26.6366L9.3742 26.6468Z" fill="white"/>
<path d="M28.6218 33.7397H31.0456V36.5778H28.3661C28.2485 37.1812 28.0593 37.7284 27.8138 38.2295C27.5684 38.7306 27.236 39.196 26.832 39.6358C26.428 40.0755 25.932 40.4948 25.349 40.8988C24.761 41.3028 24.0757 41.7221 23.2831 42.1517C22.9252 42.3562 22.6388 42.2642 22.4343 41.8704L21.7132 40.5562C21.611 40.367 21.5956 40.2085 21.6723 40.0806C21.749 39.9528 21.9076 39.8198 22.1479 39.6818C22.8382 39.2829 23.411 38.9045 23.8763 38.5312C24.3365 38.1579 24.7098 37.7386 24.986 37.2681C25.2621 36.7926 25.4564 36.2454 25.5638 35.6164C25.6763 34.9875 25.7326 34.2306 25.7326 33.3358V26.596C25.7326 26.1664 25.9576 25.9517 26.4025 25.9517H27.9519C28.3968 25.9517 28.6218 26.1664 28.6218 26.596V33.7397Z" fill="white"/>
<path d="M31.4033 42.4828C30.9738 42.4828 30.6158 42.355 30.3346 42.1095C30.0533 41.8589 29.9102 41.5214 29.9102 41.0919C29.9102 40.6624 30.0533 40.3197 30.3346 40.0589C30.6158 39.8033 30.9738 39.6703 31.4033 39.6703C31.8175 39.6703 32.1653 39.7982 32.4465 40.0589C32.7329 40.3197 32.871 40.6624 32.871 41.0919C32.871 41.5214 32.7278 41.8589 32.4465 42.1095C32.1653 42.3601 31.8175 42.4828 31.4033 42.4828ZM30.7897 36.5766C30.6158 36.5766 30.4369 36.4947 30.2477 36.3311C30.0585 36.1675 29.9664 35.7788 29.9664 35.155C29.9664 34.5362 30.0585 34.1425 30.2477 33.9788C30.4369 33.8152 30.621 33.7334 30.7897 33.7334H33.3158C33.817 33.7334 34.1442 33.6464 34.3079 33.4777C34.4715 33.3038 34.5533 32.951 34.5533 32.4192V26.5896C34.5533 26.1601 34.7783 25.9453 35.2232 25.9453H36.7727C37.2227 25.9453 37.4425 26.1601 37.4425 26.5896V32.9868C37.734 33.2425 38.0869 33.4368 38.5011 33.5544C38.9153 33.672 39.4573 33.7334 40.1272 33.7334H40.2806V36.5714H40.1272C39.3704 36.5714 38.7312 36.4589 38.2198 36.2391C37.7033 36.0141 37.284 35.697 36.9567 35.2828C36.3891 36.1419 35.2692 36.5714 33.6022 36.5714H30.7897V36.5766ZM35.1977 42.4828C34.7681 42.4828 34.4102 42.355 34.1289 42.1095C33.8477 41.8589 33.7045 41.5214 33.7045 41.0919C33.7045 40.6624 33.8477 40.3197 34.1289 40.0589C34.4102 39.8033 34.7681 39.6703 35.1977 39.6703C35.6119 39.6703 35.9596 39.7982 36.2408 40.0589C36.5272 40.3197 36.6653 40.6624 36.6653 41.0919C36.6653 41.5214 36.5221 41.8589 36.2408 42.1095C35.9596 42.3601 35.6119 42.4828 35.1977 42.4828Z" fill="white"/>
<path d="M42.6027 33.7396C43.1703 33.7396 43.5589 33.6015 43.7635 33.3254C43.968 33.0492 44.0703 32.5685 44.0703 31.8782V28.8867C44.0703 28.6464 44.1265 28.4827 44.239 28.3958C44.3515 28.3089 44.4998 28.268 44.689 28.268H46.3663C46.5555 28.268 46.7038 28.3089 46.8163 28.3958C46.9288 28.4827 46.9851 28.6464 46.9851 28.8867V33.0134C47.6396 33.5452 48.3197 33.8112 49.0254 33.8112C49.6288 33.8112 50.0379 33.6424 50.2629 33.31C50.4879 32.9776 50.5953 32.5583 50.5953 32.0572V28.8816C50.5953 28.6413 50.6566 28.4776 50.7743 28.3907C50.8919 28.3038 51.0504 28.2629 51.2396 28.2629H52.8913C53.0958 28.2629 53.2493 28.3038 53.3566 28.3907C53.4589 28.4776 53.5101 28.6413 53.5101 28.8816V32.9827C53.8169 33.2793 54.139 33.4839 54.4765 33.6117C54.8089 33.7396 55.1515 33.806 55.4941 33.806C56.0618 33.806 56.4606 33.6475 56.6958 33.3305C56.926 33.0134 57.0436 32.589 57.0436 32.0521V26.5651C57.0436 26.3248 57.0998 26.1612 57.2123 26.0742C57.3248 25.9873 57.4731 25.9464 57.6623 25.9464H59.3396C59.5441 25.9464 59.6975 25.9873 59.8049 26.0742C59.9072 26.1612 59.9583 26.3248 59.9583 26.5651V32.7577C59.9583 33.2742 59.8765 33.7651 59.7129 34.2305C59.5493 34.6958 59.3038 35.1049 58.9765 35.4577C58.6493 35.8106 58.2504 36.0867 57.7748 36.281C57.2993 36.4754 56.7572 36.5776 56.1334 36.5776C54.7578 36.5776 53.6481 36.0714 52.8044 35.0538C52.4975 35.5191 52.068 35.8873 51.526 36.1634C50.9839 36.4396 50.3498 36.5776 49.6288 36.5776C49.0612 36.5776 48.4731 36.46 47.8748 36.2299C47.2714 35.9998 46.7754 35.6418 46.3765 35.1612C46.0851 35.6112 45.6555 35.9589 45.0879 36.2043C44.5203 36.4549 43.7993 36.5776 42.9197 36.5776H40.0049C39.8311 36.5776 39.6521 36.4958 39.4629 36.3322C39.2737 36.1685 39.1816 35.7799 39.1816 35.156C39.1816 34.5322 39.2737 34.1435 39.4629 33.9799C39.6521 33.8163 39.8362 33.7344 40.0049 33.7344L42.6027 33.7396ZM50.1862 22.8577C49.7566 22.8577 49.3987 22.7299 49.1174 22.4844C48.8362 22.2339 48.693 21.8964 48.693 21.4668C48.693 21.0373 48.8362 20.6947 49.1174 20.4339C49.3987 20.1731 49.7566 20.0504 50.1862 20.0504C50.6004 20.0504 50.9481 20.1782 51.2294 20.4339C51.5106 20.6896 51.6538 21.0373 51.6538 21.4668C51.6538 21.8964 51.5106 22.239 51.2294 22.4844C50.9481 22.7299 50.6004 22.8577 50.1862 22.8577ZM52.068 19.5748C51.6538 19.5748 51.3061 19.4572 51.0248 19.2168C50.7436 18.9765 50.6004 18.6288 50.6004 18.1839C50.6004 17.7543 50.7436 17.4168 51.0248 17.1663C51.3061 16.9157 51.6538 16.793 52.068 16.793C52.4975 16.793 52.8555 16.9208 53.1368 17.1663C53.418 17.4168 53.5612 17.7543 53.5612 18.1839C53.5612 18.6339 53.418 18.9765 53.1368 19.2168C52.8606 19.4572 52.5027 19.5748 52.068 19.5748ZM53.9805 22.8577C53.551 22.8577 53.193 22.7299 52.9118 22.4844C52.6305 22.2339 52.4873 21.8964 52.4873 21.4668C52.4873 21.0373 52.6305 20.6947 52.9118 20.4339C53.193 20.1782 53.551 20.0504 53.9805 20.0504C54.3947 20.0504 54.7424 20.1782 55.0237 20.4339C55.3101 20.6896 55.4481 21.0373 55.4481 21.4668C55.4481 21.8964 55.3049 22.239 55.0237 22.4844C54.7424 22.7299 54.3896 22.8577 53.9805 22.8577Z" fill="white"/>
<path d="M63.2666 19.0377C63.2666 18.8127 63.3075 18.6644 63.3842 18.5877C63.4609 18.511 63.5888 18.4548 63.7575 18.419L65.6138 18.1633C65.9717 18.1122 66.1558 18.2911 66.1558 18.7053V32.4303C66.1558 32.9622 66.2376 33.315 66.4013 33.4889C66.5649 33.6627 66.8973 33.7446 67.3933 33.7446H68.7075V36.5826H67.1069C65.7621 36.5826 64.7853 36.3116 64.1819 35.7696C63.5683 35.2275 63.2666 34.4247 63.2666 33.3559V19.0377Z" fill="white"/>
<path d="M68.4522 36.579C68.2783 36.579 68.0994 36.4972 67.9102 36.3336C67.721 36.1699 67.6289 35.7864 67.6289 35.183C67.6289 34.8762 67.6545 34.6256 67.7056 34.4364C67.7567 34.2472 67.8232 34.104 67.9102 33.9967C67.9971 33.8944 68.0891 33.8228 68.1812 33.7921C68.2732 33.7563 68.3653 33.741 68.4522 33.741H74.0772C74.7675 33.741 75.3096 33.6387 75.7187 33.4444C76.1227 33.2449 76.3221 32.8921 76.3221 32.3756C76.3221 32.0177 76.1789 31.6239 75.8823 31.1995C75.5908 30.7802 75.1306 30.3506 74.5016 29.9109C73.8727 29.4711 73.0749 29.0415 72.1033 28.6069C71.1317 28.1773 69.9761 27.7734 68.6312 27.3949C68.442 27.3285 68.2988 27.2518 68.2067 27.1751C68.1147 27.0984 68.0636 26.9654 68.0636 26.7762V25.5592C68.0636 25.4211 68.0891 25.3035 68.1403 25.2012C68.1914 25.0989 68.2835 24.9967 68.4215 24.8944L75.9795 18.3182C76.3374 18.0114 76.6442 17.991 76.8795 18.2671L77.8357 19.3512C77.9738 19.5251 78.0454 19.6785 78.0556 19.8165C78.0658 19.9546 77.9789 20.0978 77.8102 20.2563L71.6431 25.6205C74.205 26.6023 76.1175 27.6609 77.3857 28.7961C78.6488 29.9313 79.2829 31.2302 79.2829 32.6927C79.2829 33.5006 79.1141 34.1603 78.7817 34.6665C78.4494 35.1728 78.0198 35.5665 77.5033 35.8529C76.9869 36.1393 76.409 36.3285 75.7749 36.4307C75.1357 36.533 74.5119 36.5842 73.8931 36.5842L68.4522 36.579Z" fill="white"/>
<path d="M0.297852 49.6894C0.297852 48.5388 0.527966 47.5366 0.988194 46.6775C1.44331 45.8184 2.11831 45.1536 3.00297 44.6729C3.88762 44.1974 4.9666 43.957 6.24501 43.957C6.78706 43.957 7.27285 43.9979 7.69728 44.09C8.12172 44.182 8.48478 44.2945 8.78137 44.4377V46.069H8.63819C8.3416 45.8951 7.98876 45.7621 7.58478 45.6752C7.18081 45.5883 6.74103 45.5423 6.27569 45.5423C5.43194 45.5423 4.70581 45.6957 4.09728 46.0025C3.48876 46.3093 3.01319 46.7746 2.69103 47.3883C2.36376 48.007 2.20012 48.769 2.20012 49.6843C2.20012 50.5996 2.36376 51.3616 2.69103 51.9803C3.01831 52.5991 3.48365 53.0593 4.09728 53.3661C4.71092 53.6729 5.43706 53.8263 6.27569 53.8263C6.74615 53.8263 7.18081 53.7854 7.58478 53.6934C7.98876 53.6065 8.3416 53.4786 8.63819 53.2996H8.78137V54.9309C8.48478 55.0741 8.12172 55.1917 7.69728 55.2786C7.27285 55.3656 6.78706 55.4116 6.24501 55.4116C4.9666 55.4116 3.88762 55.1815 3.00297 54.7264C2.11831 54.2712 1.44842 53.6116 0.988194 52.7576C0.53308 51.9036 0.297852 50.8809 0.297852 49.6894Z" fill="white"/>
<path d="M10.6074 55.2379L11.8858 47.8742C11.9932 47.2197 12.162 46.647 12.3972 46.1612C12.6324 45.6754 12.9392 45.2765 13.3176 44.9595C13.6961 44.6424 14.1665 44.4072 14.7392 44.2487C15.3069 44.0953 15.9921 44.0186 16.7949 44.0186C17.1887 44.0186 17.5978 44.039 18.0171 44.0799C18.4364 44.1208 18.8557 44.1873 19.2699 44.2794L19.3006 44.4634C19.2699 44.6578 19.2444 44.9083 19.229 45.2151C19.2137 45.522 19.2086 45.8339 19.2086 46.1458C19.2086 46.4578 19.2086 46.7186 19.2086 46.9231V55.2276H17.3728V46.3759C17.3728 46.1509 17.3779 45.9413 17.383 45.747C17.3881 45.5526 17.4137 45.3686 17.4546 45.1947L17.7409 45.6907C17.6029 45.6396 17.4341 45.6038 17.2398 45.5833C17.0455 45.5629 16.8307 45.5526 16.6108 45.5526C15.9614 45.5526 15.4449 45.6396 15.0614 45.8134C14.6779 45.9873 14.3864 46.243 14.1921 46.5856C13.9927 46.9231 13.8495 47.3578 13.7523 47.8947L12.4892 55.243L10.6074 55.2379ZM12.3 51.9856V50.4771H18.1654V51.9856H12.3Z" fill="white"/>
<path d="M21.6424 53.1718H21.7856C22.0412 53.3048 22.3378 53.4224 22.6702 53.5246C23.0026 53.6269 23.3708 53.7087 23.7748 53.7701C24.1736 53.8315 24.5981 53.8621 25.0481 53.8621C25.5492 53.8621 25.989 53.8161 26.3725 53.7241C26.756 53.632 27.0526 53.4837 27.2674 53.2792C27.4822 53.0746 27.5895 52.7832 27.5895 52.415C27.5895 51.965 27.4515 51.6428 27.1753 51.4434C26.8992 51.2491 26.4799 51.1008 25.9123 50.9985L24.5878 50.7684C23.9895 50.6763 23.4577 50.5025 22.9924 50.2519C22.5219 50.0014 22.1537 49.6587 21.8827 49.219C21.6117 48.7792 21.4736 48.2371 21.4736 47.5775C21.4736 46.7644 21.6731 46.0945 22.0719 45.5525C22.4708 45.0104 23.0384 44.6116 23.7748 44.3508C24.5111 44.09 25.3958 43.957 26.4236 43.957C26.8941 43.957 27.3543 43.9979 27.8145 44.0798C28.2697 44.1616 28.6532 44.269 28.9498 44.4019V46.0332H28.8219C28.5458 45.9002 28.1981 45.7775 27.7839 45.6701C27.3697 45.5627 26.8839 45.5065 26.3316 45.5065C25.7435 45.5065 25.2219 45.5729 24.7668 45.7059C24.3117 45.8389 23.9486 46.0536 23.6878 46.3451C23.427 46.6366 23.2941 47.0201 23.2941 47.4957C23.2941 48.0837 23.4628 48.4928 23.7952 48.7332C24.1276 48.9735 24.6083 49.1474 25.227 49.2496L26.5361 49.4798C27.1037 49.5718 27.5998 49.7303 28.0293 49.9553C28.4589 50.1803 28.7964 50.4871 29.0418 50.8809C29.2873 51.2746 29.41 51.7553 29.41 52.3434C29.41 52.865 29.3026 53.3201 29.0878 53.7036C28.8731 54.0871 28.5714 54.4042 28.1878 54.6599C27.7992 54.9104 27.3441 55.0996 26.8123 55.2224C26.2856 55.3451 25.6975 55.4065 25.0481 55.4065C24.5981 55.4065 24.1685 55.3809 23.7543 55.3298C23.3401 55.2786 22.9515 55.2121 22.5935 55.1201C22.2356 55.0332 21.9185 54.936 21.6424 54.8337V53.1718Z" fill="white"/>
<path d="M31.6143 55.2389V44.1475H33.4654V55.2389H31.6143ZM32.6677 50.2941V48.7548H39.5353V50.2941H32.6677ZM38.7376 55.2389V44.1475H40.5887V55.2389H38.7376Z" fill="white"/>
<path d="M43.498 44.1475H45.3492V55.2389H43.498V44.1475Z" fill="white"/>
<path d="M48.2588 55.2389V44.1475H50.1099V55.2389H48.2588ZM49.3122 45.702V44.1475H55.6378V45.702H49.3122ZM49.3122 50.2327V48.7242H54.7582V50.2327H49.3122ZM49.3122 55.2389V53.6844H55.8116V55.2389H49.3122Z" fill="white"/>
<path d="M58.082 55.2382V44.1467H59.9332V55.2382H58.082ZM59.1354 52.078V50.5081H61.8661C62.4542 50.5081 62.9349 50.3751 63.3184 50.1143C63.7019 49.8535 63.9883 49.5109 64.1724 49.0814C64.3565 48.6569 64.4536 48.1967 64.4536 47.7007C64.4536 47.0052 64.2542 46.4888 63.8604 46.1615C63.4667 45.8342 62.9502 45.6655 62.311 45.6655H59.1303V44.1416H62.357C63.2008 44.1416 63.9116 44.2797 64.5048 44.5609C65.0979 44.8371 65.5479 45.241 65.8701 45.7677C66.1923 46.2944 66.3508 46.9336 66.3508 47.6854C66.3508 48.3859 66.2229 49.0047 65.9775 49.5518C65.7269 50.099 65.3894 50.5541 64.965 50.9325C64.5405 51.3058 64.0548 51.5922 63.5178 51.7865C62.9809 51.9808 62.4184 52.078 61.8303 52.078H59.1354ZM64.8525 55.2382L62.0246 51.6177L63.8758 51.3723L66.9593 55.1615V55.2382H64.8525Z" fill="white"/>
<path d="M68.8516 55.2389V44.1475H70.7027V55.2389H68.8516ZM71.8021 51.0458H69.8692V49.5066H71.705C72.247 49.5066 72.6612 49.3889 72.9425 49.1537C73.2237 48.9185 73.4436 48.6066 73.6072 48.2281L75.4942 44.1475H77.3811V44.2855L75.2896 48.7191C75.0851 49.1639 74.8345 49.5577 74.5226 49.9054C74.2158 50.2531 73.8374 50.5293 73.3874 50.7389C72.9374 50.9435 72.4107 51.0458 71.8021 51.0458ZM74.0419 49.9514L77.4425 55.0958V55.2338H75.4124L72.5692 50.7543L74.0419 49.9514Z" fill="white"/>
</g>
<defs>
<clipPath id="clip0_16087_6875">
<rect width="129" height="60" fill="white" transform="translate(0 0.46582)"/>
</clipPath>
</defs>
</svg>
