<svg width="24" height="25" viewBox="0 0 24 25" fill="none" xmlns="http://www.w3.org/2000/svg">
<path opacity="0.4" d="M9.58174 5.95558C10.0578 5.86764 10.495 6.17143 10.5856 6.63611C10.6762 7.10079 10.3715 7.55448 9.90839 7.64542C8.51413 7.91723 7.43756 8.99649 7.16468 10.3955V10.3965C7.087 10.7993 6.73246 11.0921 6.32414 11.0921C6.26937 11.0921 6.21459 11.0871 6.15882 11.0771C5.69573 10.9841 5.39098 10.5314 5.48161 10.0658C5.88893 7.97619 7.49731 6.3623 9.58174 5.95558Z" fill="white"/>
<path opacity="0.4" d="M9.64415 2.47375C9.86723 2.44177 10.0913 2.50773 10.2696 2.64963C10.4528 2.79353 10.5674 3.00139 10.5922 3.23423C10.645 3.7049 10.3054 4.13061 9.83536 4.18358C6.5937 4.54533 4.07407 7.07059 3.70957 10.3224C3.66077 10.7581 3.29528 11.0868 2.85907 11.0868C2.82621 11.0868 2.79434 11.0848 2.76147 11.0808C2.53341 11.0559 2.33025 10.9429 2.18684 10.7631C2.04443 10.5832 1.97969 10.3593 2.00559 10.1305C2.45972 6.07328 5.59979 2.92444 9.64415 2.47375Z" fill="white"/>
<path fill-rule="evenodd" clip-rule="evenodd" d="M12.9683 13.4382C8.97918 17.4262 8.07423 12.8125 5.53435 15.3506C3.08573 17.7986 1.67838 18.289 4.78076 21.3905C5.16937 21.7028 7.63839 25.4601 16.3154 16.7855C24.9935 8.10982 21.2384 5.63826 20.926 5.24977C17.8161 2.13967 17.3341 3.5552 14.8855 6.00315C12.3456 8.54232 16.9573 9.45023 12.9683 13.4382Z" fill="white"/>
</svg>
