<svg width="24" height="25" viewBox="0 0 24 25" fill="none" xmlns="http://www.w3.org/2000/svg">
<path opacity="0.4" d="M22 16.4058C22 19.1958 19.76 21.4558 16.97 21.4658H16.96H7.05C4.27 21.4658 2 19.2158 2 16.4258V16.4158C2 16.4158 2.006 11.9898 2.014 9.76382C2.015 9.34582 2.495 9.11182 2.822 9.37182C5.198 11.2568 9.447 14.6938 9.5 14.7388C10.21 15.3078 11.11 15.6288 12.03 15.6288C12.95 15.6288 13.85 15.3078 14.56 14.7278C14.613 14.6928 18.767 11.3588 21.179 9.44282C21.507 9.18182 21.989 9.41582 21.99 9.83282C22 12.0418 22 16.4058 22 16.4058Z" fill="white"/>
<path d="M21.4759 6.13933C20.6099 4.50733 18.9059 3.46533 17.0299 3.46533H7.04988C5.17388 3.46533 3.46988 4.50733 2.60388 6.13933C2.40988 6.50433 2.50188 6.95933 2.82488 7.21733L10.2499 13.1563C10.7699 13.5763 11.3999 13.7853 12.0299 13.7853C12.0339 13.7853 12.0369 13.7853 12.0399 13.7853C12.0429 13.7853 12.0469 13.7853 12.0499 13.7853C12.6799 13.7853 13.3099 13.5763 13.8299 13.1563L21.2549 7.21733C21.5779 6.95933 21.6699 6.50433 21.4759 6.13933Z" fill="white"/>
</svg>
