<svg width="25" height="25" viewBox="0 0 25 25" fill="none" xmlns="http://www.w3.org/2000/svg">
<path d="M18.1798 5.92582C17.9424 5.92582 17.7104 5.9962 17.5131 6.12806C17.3157 6.25991 17.1619 6.44733 17.0711 6.6666C16.9803 6.88587 16.9565 7.12715 17.0028 7.35993C17.0491 7.5927 17.1634 7.80652 17.3312 7.97435C17.4991 8.14217 17.7129 8.25646 17.9457 8.30276C18.1784 8.34906 18.4197 8.3253 18.639 8.23447C18.8583 8.14365 19.0457 7.98984 19.1775 7.7925C19.3094 7.59516 19.3798 7.36316 19.3798 7.12582C19.3798 6.80756 19.2533 6.50233 19.0283 6.27729C18.8032 6.05225 18.498 5.92582 18.1798 5.92582ZM22.7797 8.34582C22.7603 7.51612 22.6049 6.69522 22.3197 5.91582C22.0655 5.24895 21.6697 4.6451 21.1597 4.14582C20.6646 3.63325 20.0593 3.24 19.3898 2.99582C18.6124 2.70198 17.7906 2.54303 16.9598 2.52582C15.8998 2.46582 15.5598 2.46582 12.8398 2.46582C10.1198 2.46582 9.77981 2.46582 8.71981 2.52582C7.88897 2.54303 7.06717 2.70198 6.28983 2.99582C5.62151 3.24247 5.01677 3.63538 4.51984 4.14582C4.00726 4.641 3.61402 5.24626 3.36984 5.91582C3.076 6.69316 2.91705 7.51497 2.89984 8.34582C2.83984 9.40582 2.83984 9.74582 2.83984 12.4658C2.83984 15.1858 2.83984 15.5258 2.89984 16.5858C2.91705 17.4167 3.076 18.2385 3.36984 19.0158C3.61402 19.6854 4.00726 20.2906 4.51984 20.7858C5.01677 21.2963 5.62151 21.6892 6.28983 21.9358C7.06717 22.2297 7.88897 22.3886 8.71981 22.4058C9.77981 22.4658 10.1198 22.4658 12.8398 22.4658C15.5598 22.4658 15.8998 22.4658 16.9598 22.4058C17.7906 22.3886 18.6124 22.2297 19.3898 21.9358C20.0593 21.6916 20.6646 21.2984 21.1597 20.7858C21.672 20.2884 22.0681 19.684 22.3197 19.0158C22.6049 18.2364 22.7603 17.4155 22.7797 16.5858C22.7797 15.5258 22.8397 15.1858 22.8397 12.4658C22.8397 9.74582 22.8397 9.40582 22.7797 8.34582ZM20.9798 16.4658C20.9725 17.1006 20.8575 17.7295 20.6398 18.3258C20.4801 18.761 20.2236 19.1542 19.8898 19.4758C19.5654 19.8063 19.173 20.0622 18.7398 20.2258C18.1435 20.4436 17.5145 20.5585 16.8798 20.5658C15.8798 20.6158 15.5098 20.6258 12.8798 20.6258C10.2498 20.6258 9.87981 20.6258 8.87981 20.5658C8.22071 20.5782 7.56441 20.4767 6.93982 20.2658C6.52561 20.0939 6.15118 19.8386 5.83983 19.5158C5.50792 19.1946 5.25467 18.801 5.09983 18.3658C4.85569 17.761 4.72028 17.1178 4.69983 16.4658C4.69983 15.4658 4.63983 15.0958 4.63983 12.4658C4.63983 9.83582 4.63983 9.46582 4.69983 8.46582C4.70432 7.81687 4.82278 7.17376 5.04983 6.56582C5.22588 6.14373 5.4961 5.76748 5.83983 5.46582C6.14364 5.12199 6.51911 4.84892 6.93982 4.66582C7.54937 4.44586 8.19181 4.3309 8.83981 4.32582C9.83981 4.32582 10.2098 4.26582 12.8398 4.26582C15.4698 4.26582 15.8398 4.26582 16.8398 4.32582C17.4745 4.3331 18.1035 4.44807 18.6998 4.66582C19.1542 4.83447 19.5621 5.10867 19.8898 5.46582C20.2175 5.773 20.4735 6.14855 20.6398 6.56582C20.862 7.17475 20.977 7.8176 20.9798 8.46582C21.0298 9.46582 21.0398 9.83582 21.0398 12.4658C21.0398 15.0958 21.0298 15.4658 20.9798 16.4658ZM12.8398 7.33582C11.8256 7.3378 10.8348 7.64034 9.99246 8.20524C9.15016 8.77013 8.49419 9.57201 8.10745 10.5096C7.72071 11.4471 7.62054 12.4783 7.81961 13.4727C8.01868 14.4672 8.50805 15.3804 9.22589 16.0968C9.94372 16.8132 10.8578 17.3008 11.8527 17.498C12.8475 17.6951 13.8785 17.5929 14.8153 17.2044C15.752 16.8158 16.5527 16.1583 17.1159 15.3148C17.6791 14.4714 17.9798 13.48 17.9798 12.4658C17.9811 11.7909 17.849 11.1224 17.591 10.4988C17.333 9.87512 16.9543 9.30863 16.4766 8.83187C15.999 8.35511 15.4317 7.9775 14.8076 7.72075C14.1834 7.464 13.5147 7.33318 12.8398 7.33582ZM12.8398 15.7958C12.1812 15.7958 11.5374 15.6005 10.9898 15.2346C10.4421 14.8687 10.0153 14.3486 9.76329 13.7402C9.51125 13.1317 9.44531 12.4621 9.57379 11.8162C9.70228 11.1702 10.0194 10.5769 10.4851 10.1112C10.9508 9.64544 11.5442 9.32829 12.1901 9.1998C12.8361 9.07131 13.5056 9.13726 14.1141 9.3893C14.7226 9.64134 15.2427 10.0682 15.6086 10.6158C15.9745 11.1634 16.1698 11.8072 16.1698 12.4658C16.1698 12.9031 16.0836 13.3361 15.9163 13.7402C15.7489 14.1442 15.5037 14.5113 15.1944 14.8205C14.8852 15.1297 14.5181 15.375 14.1141 15.5423C13.7101 15.7097 13.2771 15.7958 12.8398 15.7958Z" fill="#000"/>
</svg>
