<svg width="108" height="30" viewBox="0 0 108 30" fill="none" xmlns="http://www.w3.org/2000/svg">
<path d="M0 15C0 8.42504 0 5.13755 1.81592 2.92485C2.14835 2.51978 2.51978 2.14835 2.92485 1.81592C5.13755 0 8.42504 0 15 0H33C39.575 0 42.8624 0 45.0751 1.81592C45.4802 2.14835 45.8517 2.51978 46.1841 2.92485C48 5.13755 48 8.42504 48 15C48 21.575 48 24.8624 46.1841 27.0751C45.8517 27.4802 45.4802 27.8516 45.0751 28.1841C42.8624 30 39.575 30 33 30H15C8.42504 30 5.13755 30 2.92485 28.1841C2.51978 27.8516 2.14835 27.4802 1.81592 27.0751C0 24.8624 0 21.575 0 15Z" fill="#868989"/>
<g clip-path="url(#clip0_26187_6170)">
<path d="M24.6183 12.8803C24.5978 14.4997 26.0616 15.4034 27.1642 15.9407C28.2971 16.492 28.6776 16.8455 28.6731 17.3385C28.6647 18.093 27.7695 18.426 26.9318 18.4389C25.4702 18.4616 24.6204 18.0443 23.9449 17.7288L23.4184 20.1924C24.0962 20.5047 25.3513 20.7771 26.6528 20.7891C29.7078 20.7891 31.7065 19.281 31.7174 16.9428C31.7293 13.9754 27.6128 13.8111 27.6409 12.4847C27.6506 12.0825 28.0344 11.6534 28.8753 11.5442C29.2916 11.4891 30.4406 11.4469 31.7434 12.0468L32.2547 9.66323C31.5541 9.40814 30.6537 9.16387 29.5326 9.16387C26.6571 9.16387 24.6346 10.6925 24.6183 12.8803ZM37.1678 9.36919C36.61 9.36919 36.1399 9.69459 35.9301 10.194L31.566 20.614H34.6189L35.2264 18.9351H38.9569L39.3093 20.614H42L39.652 9.36919H37.1678ZM37.5949 12.4068L38.4759 16.6294H36.0631L37.5949 12.4068ZM20.9169 9.36933L18.5106 20.6138H21.4197L23.8249 9.36905L20.9169 9.36933ZM16.6134 9.36933L13.5855 17.0228L12.3606 10.5151C12.2169 9.78867 11.6493 9.36919 11.019 9.36919H6.06933L6 9.69572C7.01616 9.91622 8.17069 10.2719 8.87016 10.6524C9.29822 10.8848 9.42028 11.088 9.56091 11.6404L11.8808 20.614H14.955L19.6682 9.36919L16.6134 9.36933Z" fill="#FDFFFF"/>
</g>
<path d="M60 15C60 8.42504 60 5.13755 61.8159 2.92485C62.1484 2.51978 62.5198 2.14835 62.9249 1.81592C65.1376 0 68.425 0 75 0H93C99.575 0 102.862 0 105.075 1.81592C105.48 2.14835 105.852 2.51978 106.184 2.92485C108 5.13755 108 8.42504 108 15C108 21.575 108 24.8624 106.184 27.0751C105.852 27.4802 105.48 27.8516 105.075 28.1841C102.862 30 99.575 30 93 30H75C68.425 30 65.1376 30 62.9249 28.1841C62.5198 27.8516 62.1484 27.4802 61.8159 27.0751C60 24.8624 60 21.575 60 15Z" fill="#868989"/>
<g clip-path="url(#clip1_26187_6170)">
<path d="M75.8132 24.9006V23.5769C75.8132 23.0694 75.5042 22.7385 74.9747 22.7385C74.71 22.7385 74.4231 22.8267 74.2245 23.1136C74.0702 22.8709 73.8496 22.7385 73.5186 22.7385C73.2979 22.7385 73.0774 22.8046 72.9008 23.0474V22.7826H72.4375V24.9006H72.9008V23.7313C72.9008 23.3563 73.0994 23.1797 73.4084 23.1797C73.7171 23.1797 73.8717 23.3783 73.8717 23.7313V24.9006H74.335V23.7313C74.335 23.3563 74.5555 23.1797 74.8423 23.1797C75.1513 23.1797 75.3056 23.3783 75.3056 23.7313V24.9006H75.8132ZM82.6746 22.7826H81.9245V22.1428H81.4612V22.7826H81.042V23.2017H81.4611V24.1726C81.4611 24.658 81.6597 24.9447 82.1893 24.9447C82.3878 24.9447 82.6084 24.8786 82.7629 24.7904L82.6305 24.3932C82.4981 24.4814 82.3437 24.5035 82.2334 24.5035C82.0128 24.5035 81.9245 24.3712 81.9245 24.1505V23.2017H82.6746V22.7826ZM86.6018 22.7384C86.3371 22.7384 86.1606 22.8709 86.0503 23.0474V22.7826H85.5869V24.9006H86.0503V23.7093C86.0503 23.3563 86.2046 23.1577 86.4915 23.1577C86.5797 23.1577 86.6901 23.1798 86.7783 23.2018L86.9107 22.7606C86.8224 22.7385 86.6901 22.7385 86.6018 22.7385M80.6669 22.9592C80.4462 22.8047 80.1374 22.7386 79.8064 22.7386C79.277 22.7386 78.924 23.0033 78.924 23.4225C78.924 23.7756 79.1888 23.9741 79.6521 24.0403L79.8727 24.0624C80.1154 24.1064 80.2478 24.1727 80.2478 24.283C80.2478 24.4374 80.0713 24.5478 79.7623 24.5478C79.4534 24.5478 79.2108 24.4374 79.0563 24.3272L78.8357 24.6801C79.0784 24.8566 79.4094 24.9448 79.7402 24.9448C80.358 24.9448 80.7111 24.6581 80.7111 24.2609C80.7111 23.8858 80.4242 23.6873 79.9829 23.6211L79.7623 23.599C79.5637 23.5769 79.4094 23.5329 79.4094 23.4005C79.4094 23.246 79.5637 23.1578 79.8064 23.1578C80.0713 23.1578 80.336 23.2681 80.4684 23.3343L80.6669 22.9592ZM92.978 22.7386C92.7132 22.7386 92.5367 22.871 92.4263 23.0475V22.7827H91.963V24.9007H92.4263V23.7094C92.4263 23.3564 92.5808 23.1578 92.8675 23.1578C92.9559 23.1578 93.0662 23.1799 93.1545 23.2019L93.2868 22.7607C93.1986 22.7386 93.0662 22.7386 92.978 22.7386ZM87.0651 23.8417C87.0651 24.4815 87.5063 24.9448 88.1904 24.9448C88.4992 24.9448 88.7198 24.8787 88.9404 24.7022L88.7198 24.3272C88.5433 24.4595 88.3668 24.5256 88.1683 24.5256C87.7932 24.5256 87.5285 24.2609 87.5285 23.8417C87.5285 23.4446 87.7932 23.1798 88.1683 23.1578C88.3668 23.1578 88.5433 23.2239 88.7198 23.3564L88.9404 22.9813C88.7198 22.8047 88.4992 22.7386 88.1904 22.7386C87.5063 22.7386 87.0651 23.2019 87.0651 23.8417ZM91.3453 23.8417V22.7827H90.882V23.0475C90.7275 22.849 90.5069 22.7386 90.2201 22.7386C89.6244 22.7386 89.1611 23.2019 89.1611 23.8417C89.1611 24.4815 89.6244 24.9448 90.2201 24.9448C90.529 24.9448 90.7497 24.8346 90.882 24.636V24.9007H91.3453V23.8417ZM89.6464 23.8417C89.6464 23.4666 89.8892 23.1578 90.2862 23.1578C90.6613 23.1578 90.9261 23.4446 90.9261 23.8417C90.9261 24.2168 90.6613 24.5256 90.2862 24.5256C89.8892 24.5035 89.6464 24.2168 89.6464 23.8417ZM84.1088 22.7386C83.491 22.7386 83.0497 23.1798 83.0497 23.8417C83.0497 24.5036 83.4909 24.9448 84.1308 24.9448C84.4396 24.9448 84.7486 24.8566 84.9913 24.6581L84.7706 24.3272C84.5941 24.4595 84.3735 24.5478 84.1529 24.5478C83.866 24.5478 83.5792 24.4154 83.513 24.0402H85.0795V23.8638C85.1016 23.1798 84.7045 22.7386 84.1088 22.7386ZM84.1087 23.1357C84.3954 23.1357 84.5941 23.3123 84.6381 23.6432H83.535C83.5791 23.3564 83.7777 23.1357 84.1087 23.1357ZM95.6033 23.8417V21.9443H95.14V23.0475C94.9855 22.849 94.7649 22.7386 94.4781 22.7386C93.8824 22.7386 93.4191 23.2019 93.4191 23.8417C93.4191 24.4815 93.8824 24.9448 94.4781 24.9448C94.787 24.9448 95.0076 24.8346 95.14 24.636V24.9007H95.6033V23.8417ZM93.9045 23.8417C93.9045 23.4666 94.1471 23.1578 94.5443 23.1578C94.9194 23.1578 95.1841 23.4446 95.1841 23.8417C95.1841 24.2168 94.9194 24.5256 94.5443 24.5256C94.1471 24.5035 93.9045 24.2168 93.9045 23.8417ZM78.4164 23.8417V22.7827H77.9531V23.0475C77.7986 22.849 77.578 22.7386 77.2912 22.7386C76.6955 22.7386 76.2322 23.2019 76.2322 23.8417C76.2322 24.4815 76.6955 24.9448 77.2912 24.9448C77.6001 24.9448 77.8207 24.8346 77.9531 24.636V24.9007H78.4164V23.8417ZM76.6955 23.8417C76.6955 23.4666 76.9382 23.1578 77.3353 23.1578C77.7104 23.1578 77.9752 23.4446 77.9752 23.8417C77.9752 24.2168 77.7104 24.5256 77.3353 24.5256C76.9382 24.5035 76.6955 24.2168 76.6955 23.8417Z" fill="#FDFFFF"/>
<path d="M80.5122 6.69922H87.462V19.1868H80.5122V6.69922Z" fill="#D7DCDC"/>
<path d="M80.9537 12.9426C80.9537 10.4054 82.1451 8.15497 83.9762 6.69879C82.6305 5.6398 80.9317 5 79.0785 5C74.6878 5 71.1357 8.55206 71.1357 12.9426C71.1357 17.3332 74.6878 20.8852 79.0784 20.8852C80.9316 20.8852 82.6304 20.2454 83.9762 19.1863C82.1451 17.7523 80.9537 15.4798 80.9537 12.9426Z" fill="#FDFFFF"/>
<path d="M96.839 12.9426C96.839 17.3331 93.287 20.8852 88.8964 20.8852C87.0432 20.8852 85.3444 20.2454 83.9985 19.1863C85.8518 17.7303 87.0211 15.4798 87.0211 12.9426C87.0211 10.4054 85.8297 8.15497 83.9985 6.69879C85.3443 5.6398 87.0432 5 88.8964 5C93.287 5 96.839 8.57417 96.839 12.9426Z" fill="#F8FAFA"/>
</g>
<defs>
<clipPath id="clip0_26187_6170">
<rect width="36" height="11.6719" fill="white" transform="translate(6 9.16406)"/>
</clipPath>
<clipPath id="clip1_26187_6170">
<rect width="25.7286" height="20" fill="white" transform="translate(71.1357 5)"/>
</clipPath>
</defs>
</svg>
