<svg width="25" height="25" viewBox="0 0 25 25" fill="none" xmlns="http://www.w3.org/2000/svg">
<g clip-path="url(#clip0_16087_6914)">
<path d="M15.439 13.6759C15.9797 13.846 16.4978 14.0811 16.982 14.3759L16.951 14.3579C17.48 14.5929 17.937 14.8679 18.354 15.1909L18.339 15.1799C18.359 15.2409 18.371 15.3099 18.371 15.3829L18.37 15.4149V15.4139C18.355 15.8429 18.26 16.2459 18.099 16.6129L18.107 16.5919C17.876 17.0549 17.491 17.4119 17.02 17.6019L17.006 17.6069C16.5186 17.8617 15.9797 18.0022 15.43 18.0179H15.424C14.3747 17.883 13.3607 17.5497 12.436 17.0359L12.479 17.0579C11.4968 16.6129 10.6036 15.9932 9.84299 15.2289L9.84199 15.2279C9.01238 14.3641 8.26016 13.4292 7.59399 12.4339L7.54699 12.3599C6.88592 11.4957 6.50238 10.4515 6.44699 9.36489L6.44599 9.35189V9.22789C6.46066 8.76373 6.56965 8.30742 6.76633 7.88673C6.963 7.46605 7.24325 7.0898 7.58999 6.78089L7.59299 6.77789C7.80718 6.56447 8.09568 6.44227 8.39799 6.43689H8.39899C8.49999 6.43989 8.59699 6.44789 8.69099 6.46189L8.67799 6.45989C8.76499 6.47289 8.86599 6.48089 8.96999 6.48289H8.97299C9.11858 6.46873 9.26464 6.50472 9.38699 6.58489L9.38499 6.58389C9.49199 6.70189 9.57399 6.84489 9.62299 7.00189L9.62499 7.00989C9.70766 7.21655 9.87833 7.67122 10.137 8.37389C10.272 8.68789 10.404 9.07489 10.51 9.47289L10.524 9.53589C10.4519 9.88393 10.264 10.1973 9.99099 10.4249L9.98799 10.4269C9.63133 10.8042 9.45299 11.0442 9.45299 11.1469C9.45681 11.2311 9.48495 11.3124 9.53399 11.3809L9.53299 11.3799C9.91975 12.1794 10.4545 12.8985 11.109 13.4989L11.114 13.5039C11.7991 14.1211 12.5672 14.6395 13.396 15.0439L13.455 15.0699C13.5563 15.1356 13.6733 15.1733 13.794 15.1789H13.796C13.9513 15.1789 14.2307 14.9282 14.634 14.4269C15.0373 13.9256 15.3053 13.6749 15.438 13.6749L15.439 13.6759ZM12.292 21.8919H12.314C13.6271 21.8938 14.9261 21.6216 16.128 21.0929L16.067 21.1169C18.423 20.1229 20.26 18.2859 21.23 15.9929L21.254 15.9299C21.744 14.8169 22.029 13.5189 22.029 12.1549C22.029 10.7909 21.744 9.49289 21.23 8.31789L21.254 8.37989C20.26 6.02389 18.423 4.18689 16.13 3.21689L16.067 3.19289C14.954 2.70289 13.656 2.41789 12.292 2.41789C10.928 2.41789 9.62999 2.70289 8.45499 3.21689L8.51699 3.19289C6.16099 4.18689 4.32399 6.02389 3.35399 8.31689L3.32999 8.37989C2.81439 9.57562 2.55058 10.8647 2.55499 12.1669C2.55176 14.2257 3.2105 16.231 4.43399 17.8869L4.41499 17.8609L3.18999 21.4739L6.94199 20.2799C8.50937 21.3356 10.3573 21.8971 12.247 21.8919H12.294H12.292ZM12.292 0.465888H12.325C13.953 0.465888 15.501 0.807888 16.9 1.42489L16.827 1.39589C19.652 2.59289 21.855 4.79589 23.023 7.54489L23.052 7.62089C23.64 8.95789 23.982 10.5169 23.982 12.1559C23.982 13.7949 23.64 15.3539 23.023 16.7649L23.052 16.6909C21.855 19.5159 19.652 21.7189 16.903 22.8869L16.827 22.9159C15.5 23.5039 13.952 23.8459 12.324 23.8459H12.29H12.292H12.239C10.18 23.8459 8.24699 23.3049 6.57499 22.3579L6.63199 22.3879L0.166992 24.4659L2.27599 18.1869C1.1751 16.376 0.595804 14.2962 0.601992 12.1769C0.601992 10.5309 0.943992 8.96489 1.56099 7.54589L1.53199 7.62089C2.72899 4.79589 4.93199 2.59289 7.68099 1.42489L7.75699 1.39589C9.17733 0.777186 10.7108 0.460487 12.26 0.465888H12.293H12.291H12.292Z" fill="#000"/>
</g>
<defs>
<clipPath id="clip0_16087_6914">
<rect width="24" height="24" fill="#000" transform="translate(0.166992 0.46582)"/>
</clipPath>
</defs>
</svg>
