<svg width="24" height="25" viewBox="0 0 24 25" fill="none" xmlns="http://www.w3.org/2000/svg">
<path opacity="0.4" d="M6.9403 21.0958C8.4303 21.9658 10.1603 22.4658 12.0003 22.4658C17.6303 22.4658 22.3103 17.4958 21.9803 11.8758C21.6403 6.07579 16.3703 1.60578 10.3003 2.60578C6.12029 3.29578 2.77029 6.68578 2.12029 10.8658C1.74029 13.2858 2.24031 15.5758 3.33031 17.4658L2.4403 20.7758C2.2403 21.5258 2.93028 22.2058 3.67028 21.9958L6.9403 21.0958Z" fill="white"/>
<path d="M17 15.6358C17 15.8158 16.96 16.0058 16.87 16.1858C16.78 16.3658 16.67 16.5358 16.53 16.6958C16.28 16.9658 16.01 17.1658 15.71 17.2858C15.41 17.4158 15.08 17.4758 14.73 17.4758C14.22 17.4758 13.67 17.3558 13.1 17.1058C12.52 16.8558 11.95 16.5258 11.38 16.1158C10.8 15.6958 10.26 15.2258 9.73999 14.7158C9.21999 14.1958 8.76003 13.6458 8.34003 13.0758C7.93003 12.5058 7.59999 11.9358 7.35999 11.3658C7.11999 10.7958 7 10.2458 7 9.7258C7 9.3858 7.05999 9.0558 7.17999 8.7558C7.29999 8.4458 7.49001 8.16579 7.76001 7.91579C8.08001 7.59579 8.42999 7.4458 8.79999 7.4458C8.93999 7.4458 9.08002 7.4758 9.21002 7.5358C9.34002 7.5958 9.45999 7.6858 9.54999 7.8158L10.7 9.4658C10.79 9.5958 10.86 9.7058 10.9 9.8158C10.95 9.9258 10.97 10.0258 10.97 10.1258C10.97 10.2458 10.93 10.3658 10.86 10.4858C10.79 10.6058 10.7 10.7258 10.58 10.8458L10.2 11.2458C10.14 11.3058 10.12 11.3658 10.12 11.4458C10.12 11.4858 10.13 11.5258 10.14 11.5658C10.16 11.6058 10.17 11.6358 10.18 11.6658C10.27 11.8358 10.43 12.0458 10.65 12.3058C10.88 12.5658 11.12 12.8358 11.38 13.0958C11.65 13.3658 11.91 13.6058 12.18 13.8358C12.44 14.0558 12.66 14.2058 12.83 14.2958C12.86 14.3058 12.89 14.3258 12.92 14.3358C12.96 14.3558 13 14.3558 13.05 14.3558C13.14 14.3558 13.2 14.3258 13.26 14.2658L13.64 13.8858C13.77 13.7558 13.89 13.6658 14 13.6058C14.12 13.5358 14.23 13.4958 14.36 13.4958C14.46 13.4958 14.56 13.5158 14.67 13.5658C14.78 13.6158 14.9 13.6758 15.02 13.7658L16.68 14.9458C16.81 15.0358 16.9 15.1458 16.96 15.2658C16.97 15.3758 17 15.4958 17 15.6358Z" fill="white"/>
</svg>
